<?xml version="1.0" standalone="no"?>
<!DOCTYPE svg PUBLIC "-//W3C//DTD SVG 20010904//EN"
 "http://www.w3.org/TR/2001/REC-SVG-20010904/DTD/svg10.dtd">
<svg version="1.0" xmlns="http://www.w3.org/2000/svg"
 width="260.000000pt" height="260.000000pt" viewBox="0 0 260.000000 260.000000"
 preserveAspectRatio="xMidYMid meet">
<metadata>
Created by potrace 1.14, written by Peter Selinger 2001-2017
</metadata>
<g transform="translate(0.000000,260.000000) scale(0.100000,-0.100000)"
fill="#000000" stroke="none">
<path d="M1150 2593 c-290 -45 -514 -146 -713 -323 -289 -256 -441 -608 -432
-1000 2 -80 6 -158 10 -175 21 -100 28 -128 51 -200 141 -442 511 -770 985
-871 117 -25 380 -25 499 0 545 116 945 533 1034 1077 14 84 14 322 1 404 -12
68 -56 230 -66 240 -5 5 -9 16 -9 25 -1 23 -81 180 -133 257 -89 132 -208 252
-346 348 -138 96 -369 187 -536 211 -41 7 -314 12 -345 7z"/>
</g>
</svg>
